<svg xmlns="http://www.w3.org/2000/svg" xmlns:xlink="http://www.w3.org/1999/xlink" width="15" height="15" viewBox="0 0 15 15">
  <defs>
    <filter id="NewAccountIcon" x="-9" y="-6" width="32.999" height="33" filterUnits="userSpaceOnUse">
      <feOffset dy="3" input="SourceAlpha"/>
      <feGaussianBlur stdDeviation="3" result="blur"/>
      <feFlood/>
      <feComposite operator="in" in2="blur"/>
      <feComposite in="SourceGraphic"/>
    </filter>
    <clipPath id="clip-AddAccountIcon">
      <rect width="15" height="15"/>
    </clipPath>
  </defs>
  <g id="AddAccountIcon" clip-path="url(#clip-AddAccountIcon)">
    <g transform="matrix(1, 0, 0, 1, 0, 0)" filter="url(#NewAccountIcon)">
      <path id="NewAccountIcon-2" data-name="NewAccountIcon" d="M-3545-2189.5v-4.5h-4.5a1.5,1.5,0,0,1-1.5-1.5,1.5,1.5,0,0,1,1.5-1.5h4.5v-4.5a1.5,1.5,0,0,1,1.5-1.5,1.5,1.5,0,0,1,1.5,1.5v4.5h4.5a1.5,1.5,0,0,1,1.5,1.5,1.5,1.5,0,0,1-1.5,1.5h-4.5v4.5a1.5,1.5,0,0,1-1.5,1.5A1.5,1.5,0,0,1-3545-2189.5Z" transform="translate(3551 2203)" fill="#fff"/>
    </g>
  </g>
</svg>
