<svg xmlns="http://www.w3.org/2000/svg" xmlns:xlink="http://www.w3.org/1999/xlink" width="15" height="15" viewBox="0 0 15 15">
  <defs>
    <filter id="Path_646" x="-8" y="-6" width="32" height="33" filterUnits="userSpaceOnUse">
      <feOffset dy="3" input="SourceAlpha"/>
      <feGaussianBlur stdDeviation="3" result="blur"/>
      <feFlood/>
      <feComposite operator="in" in2="blur"/>
      <feComposite in="SourceGraphic"/>
    </filter>
    <filter id="AP" x="-5" y="-2" width="27" height="24" filterUnits="userSpaceOnUse">
      <feOffset dy="3" input="SourceAlpha"/>
      <feGaussianBlur stdDeviation="3" result="blur-2"/>
      <feFlood/>
      <feComposite operator="in" in2="blur-2"/>
      <feComposite in="SourceGraphic"/>
    </filter>
    <clipPath id="clip-AffiliateIcon">
      <rect width="15" height="15"/>
    </clipPath>
  </defs>
  <g id="AffiliateIcon" clip-path="url(#clip-AffiliateIcon)">
    <g id="SoundbarProgramIcon" transform="translate(-18 -791)">
      <g transform="matrix(1, 0, 0, 1, 18, 791)" filter="url(#Path_646)">
        <g id="Path_646-2" data-name="Path 646" transform="translate(1)" fill="none" stroke-dasharray="1 1">
          <path d="M2,0H12a2.193,2.193,0,0,1,1.412.583A1.825,1.825,0,0,1,14,2V13a2,2,0,0,1-2,2H2a2,2,0,0,1-2-2V2A2,2,0,0,1,2,0Z" stroke="none"/>
          <path d="M 2 0 L 3 0 L 3 0.5 L 2 0.5 L 2 0 C 2 0 2 0 2 0 Z M 4 0 L 5 0 L 5 0.5 L 4 0.5 L 4 0 Z M 6 0 L 7 0 L 7 0.5 L 6 0.5 L 6 0 Z M 8 0 L 9 0 L 9 0.5 L 8 0.5 L 8 0 Z M 10 0 L 11 0 L 11 0.5 L 10 0.5 L 10 0 Z M 12 0 C 12.00100135803223 0 12.00192260742188 4.76837158203125e-06 12.00292301177979 1.9073486328125e-06 C 12.00369930267334 2.86102294921875e-06 12.00450229644775 7.62939453125e-06 12.00527858734131 6.67572021484375e-06 C 12.00617694854736 8.58306884765625e-06 12.00710296630859 8.58306884765625e-06 12.00800037384033 1.621246337890625e-05 C 12.00885963439941 1.811981201171875e-05 12.00965976715088 2.09808349609375e-05 12.01051902770996 2.765655517578125e-05 C 12.0113410949707 3.147125244140625e-05 12.01216983795166 3.0517578125e-05 12.0129919052124 4.1961669921875e-05 C 12.01389312744141 4.673004150390625e-05 12.01480770111084 4.9591064453125e-05 12.01570892333984 6.103515625e-05 C 12.01648044586182 6.67572021484375e-05 12.01724243164062 7.82012939453125e-05 12.01801300048828 8.0108642578125e-05 C 12.01897811889648 8.869171142578125e-05 12.01995944976807 9.918212890625e-05 12.02092361450195 0.0001087188720703125 C 12.02166748046875 0.0001153945922851562 12.0224437713623 0.000125885009765625 12.02318859100342 0.0001325607299804688 C 12.02405548095703 0.0001420974731445312 12.02496147155762 0.0001516342163085938 12.02582931518555 0.0001649856567382812 C 12.02665328979492 0.0001745223999023438 12.0275182723999 0.0001850128173828125 12.02834224700928 0.0001993179321289062 C 12.02915573120117 0.000209808349609375 12.02995109558105 0.0002155303955078125 12.03076553344727 0.0002346038818359375 C 12.0316801071167 0.0002489089965820312 12.03267288208008 0.0002660751342773438 12.0335865020752 0.0002803802490234375 C 12.03437614440918 0.0002946853637695312 12.0351505279541 0.0003080368041992188 12.03594017028809 0.0003204345703125 C 12.03682422637939 0.0003366470336914062 12.03775405883789 0.0003519058227539062 12.0386381149292 0.0003709793090820312 C 12.03952121734619 0.0003881454467773438 12.04035758972168 0.0004062652587890625 12.04124069213867 0.000423431396484375 C 12.04294395446777 0.0004587173461914062 12.04463195800781 0.0005044937133789062 12.04633522033691 0.0005350112915039062 C 12.04712390899658 0.0005540847778320312 12.04790782928467 0.0005731582641601562 12.04869651794434 0.000591278076171875 C 12.04960918426514 0.000614166259765625 12.05056095123291 0.0006341934204101562 12.05147457122803 0.0006618499755859375 C 12.05226230621338 0.0006818771362304688 12.05305099487305 0.000701904296875 12.0538387298584 0.00072479248046875 C 12.05469131469727 0.0007486343383789062 12.05550575256348 0.0007829666137695312 12.05635833740234 0.0007944107055664062 C 12.05728149414062 0.0008211135864257812 12.05816459655762 0.0008459091186523438 12.05908870697021 0.0008745193481445312 C 12.05986785888672 0.0008974075317382812 12.06065654754639 0.0009241104125976562 12.06143569946289 0.000946044921875 C 12.06235885620117 0.0009756088256835938 12.06331825256348 0.001007080078125 12.06424045562744 0.001035690307617188 C 12.06503105163574 0.001062393188476562 12.06585597991943 0.001091957092285156 12.06664657592773 0.001115798950195312 C 12.06752109527588 0.001145362854003906 12.06835746765137 0.001179695129394531 12.0692310333252 0.0012054443359375 C 12.07010078430176 0.0012359619140625 12.07090187072754 0.001268386840820312 12.0717716217041 0.001296043395996094 C 12.07253265380859 0.001324653625488281 12.07330131530762 0.001330375671386719 12.07405662536621 0.001381874084472656 C 12.07503128051758 0.001418113708496094 12.07600402832031 0.001458168029785156 12.07697868347168 0.001494407653808594 C 12.07775783538818 0.00152587890625 12.0784969329834 0.001554489135742188 12.07927513122559 0.001585960388183594 C 12.08023452758789 0.00162506103515625 12.08124923706055 0.001666069030761719 12.08220863342285 0.001708030700683594 C 12.08296394348145 0.001739501953125 12.08376312255859 0.001774787902832031 12.08451843261719 0.001806259155273438 C 12.08618545532227 0.001878738403320312 12.08787250518799 0.001956939697265625 12.08953857421875 0.002031326293945312 C 12.09033966064453 0.00206756591796875 12.09115791320801 0.002107620239257812 12.09195899963379 0.002144813537597656 C 12.09288501739502 0.002187728881835938 12.09372901916504 0.002228736877441406 12.09465408325195 0.002274513244628906 C 12.09548473358154 0.002315521240234375 12.09629917144775 0.002353668212890625 12.09712886810303 0.002396583557128906 C 12.09885883331299 0.002485275268554688 12.10057163238525 0.002577781677246094 12.1023006439209 0.002663612365722656 C 12.10305309295654 0.002703666687011719 12.1038236618042 0.002760887145996094 12.10457515716553 0.002785682678222656 C 12.10550785064697 0.002837181091308594 12.10634708404541 0.002888679504394531 12.10727977752686 0.002934455871582031 C 12.10808372497559 0.002979278564453125 12.1088809967041 0.003014564514160156 12.10968399047852 0.003070831298828125 C 12.11050415039062 0.003117561340332031 12.11134815216064 0.00316619873046875 12.11216735839844 0.003213882446289062 C 12.11216735839844 0.003213882446289062 12.1121711730957 0.003213882446289062 12.1121711730957 0.003213882446289062 C 12.11304664611816 0.003265380859375 12.11389827728271 0.00330352783203125 12.11477375030518 0.003368377685546875 C 12.11649894714355 0.003472328186035156 12.11826515197754 0.0035858154296875 12.11998844146729 0.003687858581542969 C 12.12078762054443 0.0037384033203125 12.1216287612915 0.003787040710449219 12.12242889404297 0.003843307495117188 C 12.1232852935791 0.003897666931152344 12.12405776977539 0.003936767578125 12.12491416931152 0.004004478454589844 C 12.1257848739624 0.004061698913574219 12.12669086456299 0.004123687744140625 12.12756156921387 0.004179954528808594 C 12.12925910949707 0.004293441772460938 12.13095664978027 0.004403114318847656 12.13265132904053 0.004528045654296875 C 12.13430023193359 0.004642486572265625 12.135986328125 0.004758834838867188 12.13763523101807 0.004883766174316406 C 12.13851356506348 0.004946708679199219 12.13931179046631 0.005011558532714844 12.14019012451172 0.005070686340332031 C 12.14190196990967 0.005197525024414062 12.14352512359619 0.005339622497558594 12.14523506164551 0.005452156066894531 C 12.1469087600708 0.005581855773925781 12.14861583709717 0.005734443664550781 12.15028953552246 0.005847930908203125 C 12.15115928649902 0.005917549133300781 12.15202045440674 0.005986213684082031 12.1528902053833 0.0060577392578125 C 12.15370082855225 0.006124496459960938 12.15449714660645 0.006216049194335938 12.15530967712402 0.006256103515625 C 12.15623188018799 0.006333351135253906 12.15705490112305 0.00640106201171875 12.15797805786133 0.006479263305664062 C 12.15970325469971 0.006623268127441406 12.16147136688232 0.006773948669433594 12.1631965637207 0.006926536560058594 C 12.16394996643066 0.006993293762207031 12.16474056243896 0.007059097290039062 12.16549396514893 0.007128715515136719 C 12.16632270812988 0.0072021484375 12.16722106933594 0.007290840148925781 12.16805076599121 0.007356643676757812 C 12.16890907287598 0.007434844970703125 12.1697416305542 0.007502555847167969 12.17060089111328 0.007588386535644531 C 12.17228507995605 0.007742881774902344 12.17398452758789 0.007900238037109375 12.17566776275635 0.008059501647949219 C 12.17730331420898 0.008213996887207031 12.17896938323975 0.008374214172363281 12.18060493469238 0.008532524108886719 C 12.18060493469238 0.008532524108886719 12.18060493469238 0.008533477783203125 12.18060493469238 0.008533477783203125 C 12.1814603805542 0.008616447448730469 12.18233203887939 0.008698463439941406 12.18318557739258 0.008786201477050781 C 12.1848840713501 0.008954048156738281 12.1865406036377 0.009110450744628906 12.18824005126953 0.009293556213378906 C 12.20680522918701 0.01118278503417969 12.22529125213623 0.01336669921875 12.24385643005371 0.01587390899658203 C 12.24387550354004 0.01587677001953125 12.24389743804932 0.01587963104248047 12.24391651153564 0.01588153839111328 C 12.46079349517822 0.04517364501953125 12.67869758605957 0.1174793243408203 12.922776222229 0.2533378601074219 C 12.92372131347656 0.2538909912109375 12.92468166351318 0.2544002532958984 12.92562294006348 0.2549257278442383 C 12.92564392089844 0.2549371719360352 12.9256534576416 0.2549419403076172 12.92567443847656 0.2549533843994141 C 12.92751598358154 0.2559814453125 12.92938709259033 0.2570295333862305 12.93123245239258 0.2580642700195312 C 12.93131637573242 0.2581119537353516 12.9314022064209 0.2581596374511719 12.93148612976074 0.2582073211669922 C 12.93333053588867 0.2592430114746094 12.93513488769531 0.2602577209472656 12.93698215484619 0.2613010406494141 C 12.9379301071167 0.2618293762207031 12.93891906738281 0.2623939514160156 12.93986892700195 0.2629318237304688 C 12.94083595275879 0.2634906768798828 12.94179725646973 0.2640237808227539 12.94276428222656 0.2645730972290039 C 12.94369220733643 0.2650938034057617 12.94455909729004 0.2655906677246094 12.94548892974854 0.2661209106445312 C 12.94717884063721 0.2670717239379883 12.94882774353027 0.2680225372314453 12.95051956176758 0.2689905166625977 L 12.70236968994141 0.7030696868896484 C 12.45339012145996 0.56072998046875 12.24333000183105 0.5 12 0.5 L 12 0 Z M 13.70333957672119 0.9095001220703125 C 13.84871959686279 1.149849891662598 13.96951007843018 1.487000465393066 13.99503040313721 1.856719970703125 L 13.49621963500977 1.89115047454834 C 13.47848987579346 1.634329795837402 13.39805030822754 1.37086009979248 13.27552032470703 1.168270111083984 L 13.70333957672119 0.9095001220703125 Z M 13.5 2.856610298156738 L 14 2.856610298156738 C 14 2.856610298156738 14 3.856610298156738 14 3.856610298156738 L 13.5 3.856610298156738 L 13.5 2.856610298156738 Z M 13.5 4.856610298156738 L 14 4.856610298156738 C 14 4.856610298156738 14 5.856610298156738 14 5.856610298156738 L 13.5 5.856610298156738 L 13.5 4.856610298156738 Z M 13.5 6.856610298156738 L 14 6.856610298156738 C 14 6.856610298156738 14 7.85660982131958 14 7.85660982131958 L 13.5 7.85660982131958 L 13.5 6.856610298156738 Z M 13.5 8.856609344482422 L 14 8.856609344482422 C 14 8.856609344482422 14 9.856609344482422 14 9.856609344482422 L 13.5 9.856609344482422 L 13.5 8.856609344482422 Z M 13.5 10.85660934448242 L 14 10.85660934448242 C 14 10.85660934448242 14 11.85661029815674 14 11.85661029815674 L 13.5 11.85661029815674 L 13.5 10.85660934448242 Z M 13.5 12.85661029815674 L 14 12.85661029815674 C 14 12.85661029815674 14 13 14 13 C 14 13.00112152099609 13.99999904632568 13.00226211547852 13.99999713897705 13.00338363647461 C 13.99999523162842 13.00446701049805 13.99999237060547 13.00563716888428 13.9999885559082 13.00672054290771 C 13.99998474121094 13.00787925720215 13.99998092651367 13.00892639160156 13.99997520446777 13.01008415222168 C 13.99996948242188 13.01118755340576 13.99996280670166 13.01231384277344 13.99995517730713 13.0134162902832 C 13.99994850158691 13.01455116271973 13.99993991851807 13.01564598083496 13.9999303817749 13.01677989959717 C 13.99992084503174 13.01793193817139 13.99991130828857 13.01896095275879 13.99990081787109 13.02011203765869 C 13.9998893737793 13.02119636535645 13.99987602233887 13.02245140075684 13.99986362457275 13.02353477478027 C 13.99985122680664 13.02461910247803 13.99983692169189 13.02576637268066 13.99982261657715 13.0268497467041 C 13.9998083114624 13.02796459197998 13.99979305267334 13.02904987335205 13.99977684020996 13.03016376495361 C 13.99975967407227 13.03133296966553 13.99974155426025 13.0324592590332 13.99972248077393 13.03362655639648 C 13.99970245361328 13.03481769561768 13.99968242645264 13.03598785400391 13.99966049194336 13.03717803955078 C 13.9996395111084 13.03833675384521 13.99961757659912 13.03946781158447 13.99959468841553 13.04062652587891 C 13.999587059021 13.04102897644043 13.99958038330078 13.04135513305664 13.99957275390625 13.04175758361816 C 13.99955081939697 13.04280185699463 13.9995288848877 13.04383277893066 13.9995059967041 13.04487705230713 C 13.99950504302979 13.04494380950928 13.99950408935547 13.0449800491333 13.99950218200684 13.04504680633545 C 13.99947738647461 13.04619884490967 13.99945163726807 13.04732322692871 13.99942398071289 13.04847526550293 C 13.99942111968994 13.04860877990723 13.99942111968994 13.04858112335205 13.99941825866699 13.04871559143066 C 13.99939346313477 13.04975891113281 13.99936771392822 13.05079555511475 13.99934101104736 13.05183792114258 C 13.99931240081787 13.05296421051025 13.9992847442627 13.05400276184082 13.99925422668457 13.05512809753418 C 13.99922370910645 13.05626201629639 13.99919319152832 13.05734443664551 13.99916076660156 13.05847835540771 C 13.9991283416748 13.05963039398193 13.99909591674805 13.06070327758789 13.99906158447266 13.06185436248779 C 13.99902820587158 13.06295585632324 13.99899101257324 13.06413555145264 13.99895572662354 13.06523704528809 C 13.99892044067383 13.06632041931152 13.99888324737549 13.06746292114258 13.99884700775146 13.0685453414917 C 13.99880790710449 13.06969547271729 13.99877071380615 13.07077121734619 13.99873065948486 13.07192134857178 C 13.99868869781494 13.07308864593506 13.9986515045166 13.07413005828857 13.99860763549805 13.07529735565186 C 13.99856567382812 13.0764331817627 13.99852180480957 13.07760524749756 13.99847793579102 13.07874011993408 C 13.99843406677246 13.07987594604492 13.99839210510254 13.0809383392334 13.99834632873535 13.08207321166992 C 13.99829864501953 13.08324432373047 13.99825096130371 13.08439826965332 13.99820137023926 13.08556842803955 C 13.99814891815186 13.08681583404541 13.9980936050415 13.08811187744141 13.99803924560547 13.08935832977295 C 13.9980297088623 13.08955860137939 13.99802494049072 13.08968925476074 13.99801540374756 13.08988952636719 C 13.99791526794434 13.09216213226318 13.99781227111816 13.094407081604 13.99770450592041 13.09667778015137 C 13.99770069122314 13.09674453735352 13.99769496917725 13.09687042236328 13.99769115447998 13.09693717956543 C 13.99764251708984 13.09795665740967 13.99759387969971 13.09897422790527 13.99754333496094 13.0999927520752 C 13.9974889755249 13.10109901428223 13.9974308013916 13.10225582122803 13.99737453460693 13.10336208343506 C 13.99731826782227 13.1044807434082 13.99726390838623 13.10552787780762 13.99720478057861 13.10664653778076 C 13.99714756011963 13.10774230957031 13.99708843231201 13.10884666442871 13.99702930450439 13.10994148254395 C 13.99696731567383 13.11108589172363 13.99690628051758 13.11218070983887 13.99684238433838 13.11332416534424 C 13.99678039550781 13.11443710327148 13.99671745300293 13.11554431915283 13.99665355682373 13.11665630340576 C 13.99659061431885 13.117751121521 13.99652481079102 13.11888122558594 13.9964599609375 13.11997509002686 C 13.9963903427124 13.12115287780762 13.99632835388184 13.12217998504639 13.99625682830811 13.12335681915283 C 13.99618530273438 13.12453937530518 13.99611473083496 13.12568664550781 13.99604034423828 13.12686920166016 C 13.99596691131592 13.12803745269775 13.99589729309082 13.12914276123047 13.99582195281982 13.13031196594238 C 13.99573993682861 13.13158702850342 13.99566459655762 13.13273906707764 13.99558067321777 13.13401412963867 C 13.99557209014893 13.13414669036865 13.99556159973145 13.13430023193359 13.9955530166626 13.13443279266357 C 13.9954833984375 13.13548278808594 13.99541187286377 13.13654518127441 13.99534034729004 13.13759422302246 C 13.99533653259277 13.13766098022461 13.99533081054688 13.13774108886719 13.99532604217529 13.13780784606934 C 13.99509429931641 13.14122200012207 13.9948558807373 13.14458847045898 13.99460697174072 13.14799785614014 C 13.99460220336914 13.14806365966797 13.99460124969482 13.14806842803955 13.99459648132324 13.1481351852417 C 13.99452018737793 13.14918231964111 13.99444389343262 13.1502046585083 13.99436569213867 13.15125179290771 C 13.99428367614746 13.1523551940918 13.99419403076172 13.15354347229004 13.99410915374756 13.15464687347412 C 13.99402618408203 13.15573215484619 13.99394130706787 13.15683555603027 13.99385643005371 13.15791988372803 C 13.99376487731934 13.15908432006836 13.99368381500244 13.1601095199585 13.99359130859375 13.16127300262451 C 13.99349975585938 13.16241836547852 13.99341869354248 13.16343116760254 13.99332523345947 13.16457653045654 C 13.99323463439941 13.16569137573242 13.99313545227051 13.16689491271973 13.9930419921875 13.16800880432129 C 13.99294662475586 13.16915798187256 13.99285125732422 13.17028999328613 13.99275398254395 13.1714391708374 C 13.99273777008057 13.1716365814209 13.99271869659424 13.17185497283936 13.99270248413086 13.17205333709717 C 13.99261569976807 13.17306232452393 13.99252796173096 13.17408657073975 13.99244022369385 13.1750955581665 C 13.99243450164795 13.17516136169434 13.99242877960205 13.17523574829102 13.99242305755615 13.17530250549316 C 13.99173736572266 13.18319320678711 13.99100399017334 13.1910924911499 13.99022769927979 13.19895648956299 C 13.99022769927979 13.19895648956299 13.9902172088623 13.19905853271484 13.9902172088623 13.19905853271484 C 13.99010753631592 13.20016860961914 13.98999977111816 13.20125770568848 13.98988819122314 13.20236873626709 C 13.98988819122314 13.20236873626709 13.98988723754883 13.20237445831299 13.98988723754883 13.20237445831299 C 13.98977756500244 13.20346736907959 13.98966598510742 13.20456218719482 13.9895544052124 13.20565414428711 C 13.98954772949219 13.20571994781494 13.98953628540039 13.20583534240723 13.98952960968018 13.20590114593506 C 13.98942375183105 13.20694065093994 13.98931503295898 13.20799350738525 13.98920726776123 13.20903205871582 C 13.9891996383667 13.20909786224365 13.98919105529785 13.20918273925781 13.98918437957764 13.20924758911133 C 13.98907661437988 13.21028709411621 13.98896884918213 13.21131801605225 13.98885917663574 13.2123556137085 C 13.98885154724121 13.21242141723633 13.98883533477783 13.21258354187012 13.9888277053833 13.21264934539795 C 13.98871994018555 13.2136697769165 13.98860931396484 13.21471309661865 13.98849964141846 13.21573352813721 C 13.98849296569824 13.21579933166504 13.9884786605835 13.21592807769775 13.98847198486328 13.21599388122559 C 13.98836040496826 13.21703147888184 13.98824501037598 13.21809482574463 13.98813247680664 13.21913146972656 C 13.98812484741211 13.21919727325439 13.98811721801758 13.21926879882812 13.98811054229736 13.21933364868164 C 13.96454811096191 13.43534564971924 13.90659046173096 13.64101028442383 13.8198299407959 13.83076000213623 L 13.36511039733887 13.62283992767334 C 13.45462036132812 13.42708969116211 13.5 13.21753978729248 13.5 13 L 13.5 12.85661029815674 Z M 12.89865970611572 14.20114994049072 L 13.19859981536865 14.60120010375977 C 13.1642894744873 14.62692070007324 13.12918186187744 14.65153312683105 13.0932149887085 14.67505168914795 C 13.09316539764404 14.67508506774902 13.09312725067139 14.67510986328125 13.09307670593262 14.67514228820801 C 13.08976936340332 14.67730522155762 13.08651351928711 14.67942047119141 13.08319187164307 14.68156433105469 C 13.0823860168457 14.68208503723145 13.08146286010742 14.68267917633057 13.08065700531006 14.68319797515869 C 13.08052158355713 14.68328475952148 13.08039855957031 14.68336391448975 13.0802640914917 14.68345069885254 C 13.07709693908691 14.68548774719238 13.07380485534668 14.68759059906006 13.07062530517578 14.68960952758789 C 13.06976795196533 14.69015407562256 13.06879901885986 14.69076824188232 13.06793975830078 14.69131183624268 C 13.06777000427246 14.69141960144043 13.06763553619385 14.69150447845459 13.06746578216553 14.69161128997803 C 13.06513214111328 14.69308757781982 13.06278228759766 14.69456672668457 13.0604419708252 14.6960334777832 C 13.05963039398193 14.69654178619385 13.05871677398682 14.69711303710938 13.05790519714355 14.6976203918457 C 13.05766677856445 14.69776916503906 13.05743408203125 14.69791412353516 13.05719566345215 14.69806289672852 C 13.05405235290527 14.70002365112305 13.05087089538574 14.70199680328369 13.04771518707275 14.70394039154053 C 13.04683208465576 14.7044849395752 13.04581928253174 14.70510864257812 13.04493522644043 14.70565128326416 C 13.04478073120117 14.70574569702148 13.04460620880127 14.70585250854492 13.04445266723633 14.70594692230225 C 13.04220390319824 14.70732688903809 13.03990173339844 14.70873260498047 13.03764724731445 14.71010398864746 C 13.03667449951172 14.71069526672363 13.03581237792969 14.71121883392334 13.03483867645264 14.71180820465088 C 13.03384590148926 14.71240997314453 13.03297424316406 14.7129373550415 13.03198051452637 14.71353721618652 C 13.0318603515625 14.71360969543457 13.03174591064453 14.71367835998535 13.03162574768066 14.7137508392334 C 13.02931213378906 14.71514701843262 13.02689647674561 14.71659660339355 13.02457714080811 14.71798324584961 C 13.02365112304688 14.71853637695312 13.02275848388672 14.719069480896 13.02183246612549 14.71962070465088 C 13.02159023284912 14.71976470947266 13.02135372161865 14.71990585327148 13.0211124420166 14.72004890441895 C 13.01878929138184 14.72143077850342 13.01647186279297 14.72280311584473 13.0141429901123 14.72417640686035 C 13.01333713531494 14.72465133666992 13.01241111755371 14.72519683837891 13.01160430908203 14.72566986083984 C 13.01062297821045 14.72624683380127 13.00969409942627 14.72679138183594 13.00871086120605 14.72736740112305 C 13.00852012634277 14.72747898101807 13.00832080841064 14.72759532928467 13.00813007354736 14.72770690917969 C 13.00584983825684 14.72904014587402 13.0035343170166 14.73038768768311 13.00124835968018 14.73171234130859 C 13.00029754638672 14.73226356506348 12.99937438964844 14.73279762268066 12.99842262268066 14.73334693908691 C 12.99747085571289 14.73389625549316 12.99652099609375 14.73444366455078 12.99556827545166 14.73499202728271 C 12.99393749237061 14.73592948913574 12.99218654632568 14.7369327545166 12.99055194854736 14.73786640167236 C 12.98972034454346 14.73834133148193 12.98896217346191 14.73877334594727 12.98812961578369 14.73924827575684 C 12.98721122741699 14.73977088928223 12.98619937896729 14.74034595489502 12.98528003692627 14.74086761474609 C 12.98499965667725 14.74102592468262 12.98469734191895 14.74119758605957 12.98441791534424 14.74135589599609 C 12.98222732543945 14.74259662628174 12.97992610931396 14.74389457702637 12.9777307510376 14.74512767791748 C 12.97680854797363 14.74564456939697 12.97594356536865 14.74612998962402 12.97502136230469 14.7466459274292 C 12.97403049468994 14.74720001220703 12.97298812866211 14.74778270721436 12.97199630737305 14.74833488464355 C 12.9717321395874 14.74848175048828 12.97149467468262 14.74861335754395 12.97123146057129 14.74876022338867 C 12.96903133392334 14.74998474121094 12.9667387008667 14.75125503540039 12.96453285217285 14.75247192382812 C 12.96353626251221 14.75302124023438 12.96263027191162 14.75352001190186 12.96163272857666 14.75406837463379 C 12.9606351852417 14.75461578369141 12.95964241027832 14.75516128540039 12.95864391326904 14.75570774078369 C 12.95721340179443 14.75649070739746 12.95570373535156 14.75731372833252 12.95426940917969 14.75809383392334 C 12.95332717895508 14.75860595703125 12.9522123336792 14.75921154022217 12.95126914978027 14.75972175598145 C 12.95030879974365 14.7602424621582 12.94923973083496 14.76082038879395 12.94827842712402 14.76133918762207 C 12.94790649414062 14.76154041290283 12.94753360748291 14.76174068450928 12.94716167449951 14.76194095611572 C 12.94499778747559 14.76310634613037 12.94276142120361 14.76430606842041 12.94059371948242 14.76546382904053 C 12.93964195251465 14.76597118377686 12.93863964080811 14.76650619506836 12.93768692016602 14.76701259613037 C 12.93666172027588 14.76755714416504 12.93573474884033 14.7680492401123 12.93470764160156 14.76859378814697 C 12.93307876586914 14.769455909729 12.93146991729736 14.77030563354492 12.92983818054199 14.77116394042969 C 12.92895412445068 14.77162837982178 12.92801094055176 14.77212429046631 12.92712593078613 14.77258777618408 C 12.92611503601074 14.773118019104 12.92515563964844 14.77361965179443 12.92414283752441 14.77414798736572 C 12.92391109466553 14.77426910400391 12.92365074157715 14.77440452575684 12.92341899871826 14.77452564239502 C 12.92107105255127 14.77575016021729 12.91879367828369 14.77693176269531 12.9164400100708 14.77814769744873 C 12.91546058654785 14.77865314483643 12.91455268859863 14.77912139892578 12.91357326507568 14.77962493896484 C 12.91261291503906 14.78011894226074 12.91157722473145 14.7806510925293 12.91061687469482 14.78114318847656 C 12.91040134429932 14.78125286102295 12.91018581390381 14.78136348724365 12.9099702835083 14.78147315979004 C 12.90761184692383 14.78268051147461 12.90526103973389 14.78387832641602 12.90289688110352 14.78507614135742 C 12.9019136428833 14.7855749130249 12.90092754364014 14.78607368469238 12.89994335174561 14.78657054901123 C 12.89970970153809 14.78668785095215 12.89948844909668 14.78679943084717 12.89925479888916 14.7869176864624 C 12.89683151245117 14.78813934326172 12.89431858062744 14.78940010070801 12.89188957214355 14.79061222076416 C 12.89103031158447 14.79104137420654 12.89010524749756 14.79150199890137 12.88924407958984 14.79193019866943 C 12.88819885253906 14.79244995117188 12.88726043701172 14.79291534423828 12.88621520996094 14.79343318939209 C 12.88612461090088 14.79347801208496 12.8860387802124 14.79351997375488 12.88594818115234 14.79356479644775 C 12.88340187072754 14.79482555389404 12.88090324401855 14.79605484008789 12.87835121154785 14.7973051071167 C 12.87739372253418 14.79777336120605 12.8764181137085 14.79825019836426 12.87545967102051 14.7987174987793 C 12.8752965927124 14.79879665374756 12.87511348724365 14.7988862991333 12.87495040893555 14.79896545410156 C 12.87245178222656 14.80018329620361 12.86984825134277 14.80144500732422 12.86734390258789 14.80265235900879 C 12.866455078125 14.80308055877686 12.86555480957031 14.8035135269165 12.86466598510742 14.80394077301025 C 12.86368751525879 14.80441093444824 12.86269569396973 14.80488586425781 12.86171531677246 14.80535507202148 C 12.86160564422607 14.80540657043457 12.86145782470703 14.8054780960083 12.86134815216064 14.80552959442139 C 12.8587818145752 14.80675601959229 12.8560905456543 14.80803489685059 12.85351848602295 14.809250831604 C 12.85258865356445 14.80969047546387 12.85178565979004 14.81006908416748 12.85085487365723 14.81050777435303 C 12.8507080078125 14.81057643890381 12.8505334854126 14.81065845489502 12.85038661956787 14.81072807312012 C 12.84689712524414 14.81236934661865 12.84331226348877 14.81404304504395 12.83981132507324 14.81566524505615 C 12.83885860443115 14.81610679626465 12.83788967132568 14.81655502319336 12.83693599700928 14.81699466705322 C 12.83688068389893 14.81702041625977 12.83684539794922 14.81703662872314 12.83679008483887 14.81706237792969 C 12.83316993713379 14.8187313079834 12.82952880859375 14.82039833068848 12.82589817047119 14.82204627990723 C 12.82586097717285 14.82206344604492 12.82581329345703 14.8220853805542 12.82577610015869 14.82210159301758 C 12.82116508483887 14.82419490814209 12.81663036346436 14.82623291015625 12.8120002746582 14.82829189300537 C 12.81198215484619 14.82830047607422 12.81196403503418 14.82830810546875 12.81194591522217 14.8283166885376 C 12.80824279785156 14.82996368408203 12.80459594726562 14.83157253265381 12.80088043212891 14.83319759368896 C 12.80086135864258 14.83320617675781 12.80084705352783 14.83321189880371 12.80082893371582 14.83322048187256 C 12.64298629760742 14.90227222442627 12.47450828552246 14.95152950286865 12.2985372543335 14.97786903381348 C 12.29448795318604 14.97847557067871 12.2902889251709 14.97908973693848 12.28622913360596 14.9796724319458 C 12.28563022613525 14.97975826263428 12.28502941131592 14.97984313964844 12.2844295501709 14.97992897033691 L 12.21395015716553 14.48492050170898 C 12.46125030517578 14.44970989227295 12.69801998138428 14.35159015655518 12.89865970611572 14.20114994049072 Z M 10.28534984588623 14.5 L 11.28534984588623 14.5 L 11.28534984588623 15 C 11.28534984588623 15 10.28534984588623 15 10.28534984588623 15 L 10.28534984588623 14.5 Z M 8.28534984588623 14.5 L 9.28534984588623 14.5 L 9.28534984588623 15 C 9.28534984588623 15 8.28534984588623 15 8.28534984588623 15 L 8.28534984588623 14.5 Z M 6.28534984588623 14.5 L 7.28534984588623 14.5 L 7.28534984588623 15 C 7.28534984588623 15 6.28534984588623 15 6.28534984588623 15 L 6.28534984588623 14.5 Z M 4.28534984588623 14.5 L 5.28534984588623 14.5 L 5.28534984588623 15 C 5.28534984588623 15 4.28534984588623 15 4.28534984588623 15 L 4.28534984588623 14.5 Z M 2.28534984588623 14.5 L 3.28534984588623 14.5 L 3.28534984588623 15 C 3.28534984588623 15 2.28534984588623 15 2.28534984588623 15 L 2.28534984588623 14.5 Z M 0.8657798767089844 13.98165035247803 C 1.030489921569824 14.17173004150391 1.241250038146973 14.31840038299561 1.475279808044434 14.40581035614014 L 1.300350189208984 14.87421035766602 C 1.299538612365723 14.87390613555908 1.298660278320312 14.87357711791992 1.297849655151367 14.87327289581299 C 1.29680347442627 14.87288093566895 1.295683860778809 14.87246036529541 1.29464054107666 14.87206649780273 C 1.291909217834473 14.87103652954102 1.289112091064453 14.86997699737549 1.286391258239746 14.86893558502197 C 1.285273551940918 14.86850929260254 1.284191131591797 14.8680944442749 1.283075332641602 14.86766529083252 C 1.282021522521973 14.86725997924805 1.280797004699707 14.86678886413574 1.279741287231445 14.86638164520264 C 1.278117179870605 14.86575412750244 1.27657413482666 14.86515617370605 1.274951934814453 14.86452484130859 C 1.273843765258789 14.86409378051758 1.272761344909668 14.86367130279541 1.271653175354004 14.86323738098145 C 1.270466804504395 14.86277389526367 1.269257545471191 14.8622989654541 1.268074989318848 14.8618335723877 C 1.266624450683594 14.8612642288208 1.265130996704102 14.86067390441895 1.263684272766113 14.86010074615479 C 1.262603759765625 14.85967254638672 1.261420249938965 14.85920143127441 1.260337829589844 14.85877132415771 C 1.25921630859375 14.85832405090332 1.258011817932129 14.85784339904785 1.256892204284668 14.85739517211914 C 1.255373954772949 14.85678672790527 1.253962516784668 14.85622119903564 1.252444267272949 14.8556079864502 C 1.251313209533691 14.85515594482422 1.250219345092773 14.85470962524414 1.249113082885742 14.85426139831543 C 1.247937202453613 14.85378551483154 1.246825218200684 14.85333251953125 1.24565315246582 14.85285472869873 C 1.244389533996582 14.85233879089355 1.243078231811523 14.85180377960205 1.241814613342285 14.85128593444824 C 1.240514755249023 14.85075187683105 1.239241600036621 14.85022926330566 1.237943649291992 14.84969425201416 C 1.236734390258789 14.84919738769531 1.235702514648438 14.84876823425293 1.234498977661133 14.84826946258545 C 1.233220100402832 14.84773921966553 1.231927871704102 14.84720230102539 1.230650901794434 14.84666919708252 C 1.228192329406738 14.84565544128418 1.225744247436523 14.84461688995361 1.223299980163574 14.84358596801758 C 1.222091674804688 14.84307193756104 1.220851898193359 14.84255123138428 1.219639778137207 14.84203720092773 C 1.219639778137207 14.84203720092773 1.219554901123047 14.84200191497803 1.219554901123047 14.84200191497803 C 1.217153549194336 14.84098243713379 1.214741706848145 14.8399543762207 1.212345123291016 14.83892631530762 C 1.211090087890625 14.83838272094727 1.209994316101074 14.83791637420654 1.20872974395752 14.83737087249756 C 1.20872974395752 14.83737087249756 1.208690643310547 14.83735466003418 1.208690643310547 14.83735466003418 C 1.205070495605469 14.83579349517822 1.201473236083984 14.83422946929932 1.197863578796387 14.8326473236084 C 1.197863578796387 14.8326473236084 1.19786262512207 14.83264636993408 1.19786262512207 14.83264636993408 C 1.018616676330566 14.75407886505127 0.8531227111816406 14.65000152587891 0.7059412002563477 14.52498245239258 C 0.7058935165405273 14.52494239807129 0.7058687210083008 14.52492141723633 0.7058210372924805 14.52488040924072 C 0.7029190063476562 14.52241516113281 0.700037956237793 14.51995372772217 0.6971511840820312 14.5174732208252 C 0.6961507797241211 14.51661491394043 0.6951284408569336 14.51573276519775 0.6941289901733398 14.51487064361572 C 0.6940813064575195 14.51482963562012 0.6940774917602539 14.51482582092285 0.6940298080444336 14.51478481292725 C 0.6921138763427734 14.5131311416626 0.6901741027832031 14.51145172119141 0.6882638931274414 14.50979042053223 C 0.6873321533203125 14.50897884368896 0.6864614486694336 14.50822162628174 0.6855278015136719 14.50740623474121 C 0.6853866577148438 14.50728321075439 0.685185432434082 14.50710773468018 0.6850442886352539 14.50698471069336 C 0.6831989288330078 14.50537300109863 0.6813249588012695 14.50373077392578 0.6794853210449219 14.50211238861084 C 0.6785917282104492 14.50131988525391 0.6776418685913086 14.50048923492432 0.6767444610595703 14.49969673156738 C 0.6757640838623047 14.49883270263672 0.6748428344726562 14.49801540374756 0.6738672256469727 14.49715137481689 C 0.6728429794311523 14.49623584747314 0.6717128753662109 14.4952392578125 0.6706819534301758 14.49432182312012 C 0.669764518737793 14.4935131072998 0.668971061706543 14.49279689788818 0.6680631637573242 14.49198627471924 C 0.6671676635742188 14.49118423461914 0.6662111282348633 14.49032974243164 0.6653156280517578 14.48952674865723 C 0.6643133163452148 14.48862743377686 0.663294792175293 14.48771381378174 0.6622962951660156 14.48681449890137 C 0.6612825393676758 14.48590278625488 0.6603422164916992 14.48505401611328 0.6593332290649414 14.48414134979248 C 0.6584568023681641 14.48334789276123 0.6575412750244141 14.48251914978027 0.6566648483276367 14.48172473907471 C 0.6557445526123047 14.48088932037354 0.6546974182128906 14.47993755340576 0.6537771224975586 14.47910022735596 C 0.6527366638183594 14.47815322875977 0.6516790390014648 14.47718715667725 0.6506433486938477 14.47624015808105 C 0.6497535705566406 14.47542762756348 0.6489353179931641 14.47467803955078 0.6480484008789062 14.47386264801025 C 0.6471452713012695 14.4730339050293 0.6462841033935547 14.47224140167236 0.645380973815918 14.47141075134277 C 0.6442718505859375 14.47038650512695 0.6431894302368164 14.46938896179199 0.6420793533325195 14.46836280822754 C 0.6411962509155273 14.46754360198975 0.6403446197509766 14.46675682067871 0.6394624710083008 14.4659366607666 C 0.6385765075683594 14.46511459350586 0.6377067565917969 14.46430492401123 0.6368217468261719 14.46348094940186 C 0.6359395980834961 14.4626579284668 0.6349601745605469 14.46174240112305 0.6340770721435547 14.46091842651367 C 0.6330032348632812 14.45991516113281 0.6318979263305664 14.45887756347656 0.6308269500732422 14.45787239074707 C 0.6299762725830078 14.45707225799561 0.629155158996582 14.456298828125 0.6283044815063477 14.45549774169922 C 0.6274528503417969 14.45469570159912 0.6266031265258789 14.45389080047607 0.6257524490356445 14.45308685302734 C 0.6247539520263672 14.45214462280273 0.6236543655395508 14.45110034942627 0.6226615905761719 14.45015716552734 C 0.6216764450073242 14.44922161102295 0.6207418441772461 14.44833278656006 0.6197624206542969 14.44739627838135 C 0.6190023422241211 14.44667339324951 0.6181344985961914 14.44584274291992 0.6173782348632812 14.44511890411377 C 0.6165885925292969 14.44436264038086 0.6158332824707031 14.44363880157471 0.6150455474853516 14.4428825378418 C 0.6138067245483398 14.44169330596924 0.6125659942626953 14.44049835205078 0.6113290786743164 14.43930625915527 C 0.610529899597168 14.43853378295898 0.6097011566162109 14.4377326965332 0.6089019775390625 14.4369592666626 C 0.6081476211547852 14.43622779846191 0.6073331832885742 14.43543720245361 0.6065769195556641 14.43470478057861 C 0.6047840118408203 14.43296337127686 0.6029691696166992 14.43119335174561 0.6011829376220703 14.42944526672363 C 0.6004304885864258 14.42870903015137 0.5995597839355469 14.42785549163818 0.5988082885742188 14.42711734771729 C 0.5985918045043945 14.42690467834473 0.5983915328979492 14.42670726776123 0.598175048828125 14.42649459838867 C 0.5962142944335938 14.42456722259521 0.5942506790161133 14.42263031005859 0.5922975540161133 14.42069530487061 C 0.5916223526000977 14.42002105712891 0.5909872055053711 14.41939544677734 0.5903091430664062 14.41872215270996 C 0.5895051956176758 14.41792106628418 0.5887384414672852 14.41716003417969 0.5879325866699219 14.41635608673096 C 0.5878896713256836 14.41631317138672 0.5878477096557617 14.41627216339111 0.5878047943115234 14.41622924804688 C 0.5857696533203125 14.41419982910156 0.583735466003418 14.41216278076172 0.5817089080810547 14.41012382507324 C 0.5816230773925781 14.41003799438477 0.5815343856811523 14.40994834899902 0.5814485549926758 14.40986251831055 C 0.549163818359375 14.37737846374512 0.517909049987793 14.34370613098145 0.4879016876220703 14.30907821655273 L 0.8657798767089844 13.98165035247803 Z M 0 12.4273099899292 L 0.5 12.4273099899292 L 0.5 13 C 0.5 13.1075496673584 0.5113697052001953 13.21473979949951 0.5338001251220703 13.31861019134521 L 0.04506015777587891 13.42413997650146 C 0.022552490234375 13.31990432739258 0.008176803588867188 13.21266555786133 0.002610206604003906 13.1030797958374 C 0.002560615539550781 13.10200309753418 0.002504348754882812 13.10097122192383 0.002451896667480469 13.09989356994629 C 0.002401351928710938 13.09886455535889 0.002349853515625 13.09781169891357 0.002301216125488281 13.09678268432617 C 0.002246856689453125 13.09569072723389 0.002200126647949219 13.09465026855469 0.002149581909179688 13.09355926513672 C 0.002099990844726562 13.0924596786499 0.002056121826171875 13.0915060043335 0.002007484436035156 13.09040641784668 C 0.001957893371582031 13.08931922912598 0.001911163330078125 13.08822345733643 0.001864433288574219 13.08713626861572 C 0.001817703247070312 13.08607578277588 0.001771926879882812 13.08496856689453 0.001728057861328125 13.08390712738037 C 0.001683235168457031 13.08285522460938 0.001639366149902344 13.08170890808105 0.001596450805664062 13.08065605163574 C 0.001558303833007812 13.07960319519043 0.001513481140136719 13.07851505279541 0.00147247314453125 13.07746124267578 C 0.001431465148925781 13.07636547088623 0.001390457153320312 13.07526588439941 0.001349449157714844 13.07416820526123 C 0.001311302185058594 13.07309055328369 0.001272201538085938 13.07201099395752 0.001235008239746094 13.0709342956543 C 0.001231193542480469 13.07082843780518 0.001227378845214844 13.07071304321289 0.001223564147949219 13.07060813903809 C 0.001044273376464844 13.06546020507812 0.0008907318115234375 13.06046676635742 0.0007505416870117188 13.0553092956543 C 0.0007295608520507812 13.0543966293335 0.000701904296875 13.0534496307373 0.0006771087646484375 13.05253601074219 C 0.0006513595581054688 13.05149555206299 0.0006227493286132812 13.05041122436523 0.0005979537963867188 13.04936981201172 C 0.0005731582641601562 13.0482931137085 0.00054931640625 13.04726505279541 0.0005235671997070312 13.04618740081787 C 0.000499725341796875 13.04512500762939 0.0004749298095703125 13.04396152496338 0.0004510879516601562 13.04289817810059 C 0.0004301071166992188 13.04183483123779 0.0004091262817382812 13.04074478149414 0.0003862380981445312 13.03968143463135 C 0.0003671646118164062 13.03862285614014 0.0003452301025390625 13.03749942779541 0.0003261566162109375 13.03643989562988 C 0.00030517578125 13.03530597686768 0.0002870559692382812 13.03426551818848 0.0002698898315429688 13.03313064575195 C 0.0002508163452148438 13.03204441070557 0.000232696533203125 13.03090763092041 0.0002183914184570312 13.02982139587402 C 0.000202178955078125 13.02868556976318 0.000186920166015625 13.02765941619873 0.0001726150512695312 13.02652263641357 C 0.0001592636108398438 13.02540969848633 0.0001478195190429688 13.02435302734375 0.0001325607299804688 13.02323913574219 C 0.0001192092895507812 13.02206707000732 0.0001087188720703125 13.02106857299805 9.72747802734375e-05 13.01989555358887 C 8.58306884765625e-05 13.01879024505615 7.724761962890625e-05 13.01769638061523 6.771087646484375e-05 13.01659107208252 C 5.91278076171875e-05 13.01553440093994 4.9591064453125e-05 13.01434230804443 4.38690185546875e-05 13.01328563690186 C 3.62396240234375e-05 13.01216697692871 2.86102294921875e-05 13.01110744476318 2.47955322265625e-05 13.00998878479004 C 1.9073486328125e-05 13.00891017913818 1.52587890625e-05 13.00772666931152 1.1444091796875e-05 13.00664710998535 C 7.62939453125e-06 13.00558757781982 2.86102294921875e-06 13.00440216064453 2.86102294921875e-06 13.003342628479 C 9.5367431640625e-07 13.00223255157471 0 13.0011100769043 0 13 L 0 12.4273099899292 Z M 0 10.4273099899292 L 0.5 10.4273099899292 L 0.5 11.4273099899292 L 0 11.4273099899292 L 0 10.4273099899292 Z M 0 8.427309989929199 L 0.5 8.427309989929199 L 0.5 9.427309989929199 L 0 9.427309989929199 L 0 8.427309989929199 Z M 0 6.427309989929199 L 0.5 6.427309989929199 L 0.5 7.427309989929199 L 0 7.427309989929199 L 0 6.427309989929199 Z M 0 4.427309989929199 L 0.5 4.427309989929199 L 0.5 5.427309989929199 L 0 5.427309989929199 L 0 4.427309989929199 Z M 0 2.427309989929199 L 0.5 2.427309989929199 L 0.5 3.427309989929199 L 0 3.427309989929199 L 0 2.427309989929199 Z M 0.5869998931884766 0.5845699310302734 L 0.9402503967285156 0.9384298324584961 C 0.7622804641723633 1.116100311279297 0.6310100555419922 1.336569786071777 0.5606298446655273 1.576000213623047 L 0.08092021942138672 1.435000419616699 C 0.08153629302978516 1.432907104492188 0.08211231231689453 1.43095874786377 0.08273410797119141 1.428868293762207 C 0.08301448822021484 1.42789363861084 0.08331584930419922 1.426913261413574 0.08361625671386719 1.425910949707031 C 0.08362865447998047 1.425871849060059 0.083648681640625 1.425802230834961 0.08366107940673828 1.425762176513672 C 0.08450698852539062 1.42293643951416 0.08541202545166016 1.41993522644043 0.08627033233642578 1.4171142578125 C 0.08654022216796875 1.416194915771484 0.08682918548583984 1.415277481079102 0.08710384368896484 1.41438102722168 C 0.08742713928222656 1.413327217102051 0.08775234222412109 1.412263870239258 0.08807659149169922 1.41120719909668 C 0.0881195068359375 1.411068916320801 0.08815383911132812 1.410956382751465 0.08819675445556641 1.410818099975586 C 0.08874320983886719 1.409042358398438 0.08932971954345703 1.407148361206055 0.08988094329833984 1.405374526977539 C 0.09014320373535156 1.404543876647949 0.09037494659423828 1.403791427612305 0.09063434600830078 1.402956962585449 C 0.09097671508789062 1.401870727539062 0.09129428863525391 1.400852203369141 0.09163570404052734 1.399762153625488 C 0.09175300598144531 1.399387359619141 0.09186553955078125 1.399029731750488 0.09198379516601562 1.398654937744141 C 0.09275341033935547 1.396212577819824 0.09350299835205078 1.393845558166504 0.09428119659423828 1.391407012939453 C 0.09462833404541016 1.390322685241699 0.09494876861572266 1.389315605163574 0.09529781341552734 1.388230323791504 C 0.09564590454101562 1.387146949768066 0.09600639343261719 1.386025428771973 0.09635639190673828 1.384941101074219 C 0.09648323059082031 1.384548187255859 0.09661293029785156 1.384148597717285 0.09673976898193359 1.383755683898926 C 0.09717273712158203 1.382416725158691 0.09757900238037109 1.381165504455566 0.09801483154296875 1.379828453063965 C 0.09834098815917969 1.378826141357422 0.09870529174804688 1.37770938873291 0.09903526306152344 1.376707077026367 C 0.09938430786132812 1.375643730163574 0.09976673126220703 1.37447452545166 0.1001167297363281 1.373414993286133 C 0.1002464294433594 1.373022079467773 0.1003875732421875 1.372592926025391 0.1005172729492188 1.372200965881348 C 0.1012592315673828 1.369956016540527 0.1020345687866211 1.367622375488281 0.1027841567993164 1.36538028717041 C 0.1031379699707031 1.364324569702148 0.1035289764404297 1.363155364990234 0.1038827896118164 1.362103462219238 C 0.1042709350585938 1.36095142364502 0.1046056747436523 1.359955787658691 0.1049957275390625 1.358803749084473 C 0.1054983139038086 1.357314109802246 0.106013298034668 1.355800628662109 0.1065216064453125 1.354310989379883 C 0.1069269180297852 1.353123664855957 0.1073312759399414 1.35194206237793 0.1077375411987305 1.350754737854004 C 0.1081066131591797 1.349685668945312 0.108515739440918 1.348493576049805 0.108881950378418 1.347427368164062 C 0.1093072891235352 1.346199989318848 0.1097497940063477 1.344918251037598 0.1101751327514648 1.343692779541016 C 0.1106595993041992 1.34229564666748 0.1111335754394531 1.340938568115234 0.1116218566894531 1.339542388916016 C 0.1120147705078125 1.338419914245605 0.1124200820922852 1.337261199951172 0.1128149032592773 1.336139678955078 C 0.1131935119628906 1.335060119628906 0.1136226654052734 1.333849906921387 0.1140050888061523 1.332765579223633 C 0.1143827438354492 1.331698417663574 0.1147594451904297 1.330636024475098 0.1151390075683594 1.329568862915039 C 0.1155500411987305 1.328414916992188 0.115931510925293 1.327345848083496 0.1163444519042969 1.326189041137695 C 0.1167516708374023 1.32504940032959 0.117161750793457 1.323904037475586 0.1175727844238281 1.32276725769043 C 0.1180238723754883 1.321516990661621 0.1184968948364258 1.320209503173828 0.1189470291137695 1.318958282470703 C 0.1190557479858398 1.318658828735352 0.1191434860229492 1.318416595458984 0.1192522048950195 1.318117141723633 C 0.1196451187133789 1.317033767700195 0.120030403137207 1.315974235534668 0.1204252243041992 1.314891815185547 C 0.1208372116088867 1.313755035400391 0.1212844848632812 1.312533378601074 0.1217002868652344 1.311403274536133 C 0.1221513748168945 1.310174942016602 0.1225767135620117 1.309020042419434 0.1230287551879883 1.307791709899902 C 0.1231393814086914 1.307492256164551 0.1232509613037109 1.307188987731934 0.1233615875244141 1.306890487670898 C 0.123774528503418 1.305771827697754 0.1241855621337891 1.30466365814209 0.1246004104614258 1.303544998168945 C 0.1250247955322266 1.302401542663574 0.1254253387451172 1.301325798034668 0.1258535385131836 1.300183296203613 C 0.1262741088867188 1.299055099487305 0.126744270324707 1.297806739807129 0.127166748046875 1.296677589416504 C 0.1273012161254883 1.296320915222168 0.1274089813232422 1.29603385925293 0.1275434494018555 1.295676231384277 C 0.1279420852661133 1.294617652893066 0.1283540725708008 1.293522834777832 0.1287546157836914 1.292466163635254 C 0.1287775039672852 1.29240608215332 0.1287956237792969 1.292356491088867 0.1288185119628906 1.29229736328125 C 0.1292543411254883 1.291143417358398 0.1296796798706055 1.290023803710938 0.1301183700561523 1.288870811462402 C 0.1305274963378906 1.287792205810547 0.1309719085693359 1.28663158416748 0.1313858032226562 1.285550117492676 C 0.1318817138671875 1.284253120422363 0.1323738098144531 1.28297233581543 0.1328725814819336 1.281676292419434 C 0.1329412460327148 1.281498908996582 0.1330051422119141 1.281332015991211 0.1330738067626953 1.281153678894043 C 0.1335163116455078 1.280003547668457 0.1339626312255859 1.278848648071289 0.1344079971313477 1.277700424194336 C 0.1348466873168945 1.276555061340332 0.1352863311767578 1.275436401367188 0.1357278823852539 1.274303436279297 C 0.1361942291259766 1.273106575012207 0.1366424560546875 1.271955490112305 0.137110710144043 1.27076244354248 C 0.1372041702270508 1.270525932312012 0.1373205184936523 1.270228385925293 0.1374130249023438 1.269991874694824 C 0.1383047103881836 1.267717361450195 0.139185905456543 1.265483856201172 0.1400861740112305 1.263213157653809 C 0.1405448913574219 1.262063026428223 0.1409883499145508 1.260939598083496 0.1414480209350586 1.259787559509277 C 0.1419458389282227 1.258536338806152 0.1424732208251953 1.257220268249512 0.1429729461669922 1.255973815917969 C 0.1430435180664062 1.255796432495117 0.143092155456543 1.255675315856934 0.143162727355957 1.255498886108398 C 0.1436138153076172 1.254375457763672 0.144073486328125 1.253233909606934 0.144526481628418 1.252111434936523 C 0.1449804306030273 1.250982284545898 0.1454391479492188 1.249849319458008 0.1458978652954102 1.248721122741699 C 0.1463851928710938 1.247515678405762 0.1468906402587891 1.246278762817383 0.1473817825317383 1.245072364807129 C 0.1474542617797852 1.244895935058594 0.1475553512573242 1.244646072387695 0.1476278305053711 1.24446964263916 C 0.1480932235717773 1.243330955505371 0.1485624313354492 1.242184638977051 0.1490287780761719 1.241045951843262 C 0.1490774154663086 1.240928649902344 0.1491031646728516 1.240867614746094 0.1491508483886719 1.240749359130859 C 0.1495790481567383 1.239706993103027 0.1499967575073242 1.238694190979004 0.1504268646240234 1.237651824951172 C 0.1508951187133789 1.236509323120117 0.1513948440551758 1.235309600830078 0.1518688201904297 1.234165191650391 C 0.1519660949707031 1.233930587768555 0.1520652770996094 1.233691215515137 0.1521625518798828 1.233456611633301 C 0.153106689453125 1.231185913085938 0.1540641784667969 1.228891372680664 0.1550149917602539 1.226624488830566 C 0.1554994583129883 1.225484848022461 0.1559877395629883 1.224312782287598 0.1564664840698242 1.223175048828125 C 0.1565408706665039 1.222999572753906 0.1566648483276367 1.22270679473877 0.15673828125 1.222531318664551 C 0.1571693420410156 1.221511840820312 0.1576032638549805 1.220484733581543 0.1580352783203125 1.219467163085938 C 0.1580848693847656 1.21934986114502 0.1581335067749023 1.219235420227051 0.1581830978393555 1.219119071960449 C 0.1586790084838867 1.217949867248535 0.1591758728027344 1.216782569885254 0.1596746444702148 1.215615272521973 C 0.1596746444702148 1.215615272521973 0.1597251892089844 1.215497016906738 0.1597251892089844 1.215497016906738 C 0.1601753234863281 1.214442253112793 0.1606330871582031 1.213372230529785 0.1610851287841797 1.212318420410156 C 0.1615810394287109 1.211161613464355 0.162109375 1.209934234619141 0.1626071929931641 1.208780288696289 C 0.1626815795898438 1.208605766296387 0.1628084182739258 1.20831298828125 0.1628837585449219 1.208138465881348 C 0.1638565063476562 1.205883026123047 0.1648235321044922 1.203655242919922 0.1658048629760742 1.201404571533203 C 0.1662721633911133 1.200325965881348 0.1667795181274414 1.199172973632812 0.1672506332397461 1.19809627532959 C 0.1677980422973633 1.19684886932373 0.1683187484741211 1.195663452148438 0.1688680648803711 1.194416046142578 C 0.1689443588256836 1.194242477416992 0.1690435409545898 1.194016456604004 0.1691207885742188 1.193842887878418 C 0.1696071624755859 1.19273853302002 0.1700954437255859 1.191634178161621 0.1705846786499023 1.190530776977539 C 0.1710567474365234 1.189458847045898 0.1715908050537109 1.188262939453125 0.1720676422119141 1.187191963195801 C 0.1725625991821289 1.18608570098877 0.1730690002441406 1.184947967529297 0.1735658645629883 1.183836936950684 C 0.1736946105957031 1.183547973632812 0.1738529205322266 1.183194160461426 0.1739826202392578 1.182905197143555 C 0.1744766235351562 1.181803703308105 0.1749601364135742 1.180726051330566 0.1754550933837891 1.17962646484375 C 0.1754817962646484 1.179569244384766 0.1754589080810547 1.179618835449219 0.1754846572875977 1.179561614990234 C 0.1759719848632812 1.17848014831543 0.1764564514160156 1.177408218383789 0.1769447326660156 1.176327705383301 C 0.1774606704711914 1.175180435180664 0.1779356002807617 1.174138069152832 0.1784563064575195 1.172996520996094 C 0.1789922714233398 1.171815872192383 0.1795682907104492 1.170552253723145 0.1801090240478516 1.169371604919434 C 0.1801881790161133 1.169198989868164 0.1803007125854492 1.168951988220215 0.1803789138793945 1.168779373168945 C 0.180872917175293 1.167701721191406 0.1813755035400391 1.166604995727539 0.1818704605102539 1.165528297424316 C 0.1823596954345703 1.164457321166992 0.1828737258911133 1.163346290588379 0.1833667755126953 1.162282943725586 C 0.1838970184326172 1.161142349243164 0.1844301223754883 1.15998363494873 0.1849594116210938 1.158843040466309 C 0.1850929260253906 1.15855598449707 0.1852388381958008 1.158239364624023 0.1853723526000977 1.157953262329102 C 0.1858720779418945 1.156878471374512 0.1863765716552734 1.155795097351074 0.1868772506713867 1.154722213745117 C 0.1873693466186523 1.153671264648438 0.1878862380981445 1.15256404876709 0.1883831024169922 1.151506423950195 C 0.188899040222168 1.15040397644043 0.1894035339355469 1.149335861206055 0.1899213790893555 1.148235321044922 C 0.1904935836791992 1.147022247314453 0.1911077499389648 1.145720481872559 0.191680908203125 1.144512176513672 C 0.1917896270751953 1.144284248352051 0.1918506622314453 1.144153594970703 0.1919593811035156 1.143925666809082 C 0.1924400329589844 1.142910957336426 0.1929397583007812 1.141860961914062 0.1934223175048828 1.140847206115723 C 0.1939477920532227 1.13974666595459 0.1944751739501953 1.138642311096191 0.1950006484985352 1.137542724609375 C 0.1955604553222656 1.136369705200195 0.1960983276367188 1.135254859924316 0.1966609954833984 1.13408374786377 C 0.1967973709106445 1.13379955291748 0.1969509124755859 1.133480072021484 0.1970882415771484 1.133194923400879 C 0.1975927352905273 1.132146835327148 0.1980972290039062 1.131101608276367 0.198603630065918 1.13005542755127 C 0.1991090774536133 1.12901496887207 0.1996345520019531 1.127928733825684 0.2001380920410156 1.126893043518066 C 0.200678825378418 1.125777244567871 0.2011928558349609 1.124725341796875 0.2017364501953125 1.123610496520996 C 0.2023248672485352 1.122408866882324 0.2029809951782227 1.121063232421875 0.2035713195800781 1.119861602783203 C 0.2041540145874023 1.118681907653809 0.2047882080078125 1.117387771606445 0.2053689956665039 1.116209030151367 C 0.2058811187744141 1.11517333984375 0.2064189910888672 1.114083290100098 0.2069330215454102 1.11304759979248 C 0.2074813842773438 1.111933708190918 0.2080373764038086 1.110817909240723 0.2085914611816406 1.109708786010742 C 0.2092800140380859 1.10832691192627 0.2099599838256836 1.106962203979492 0.2106513977050781 1.105582237243652 C 0.2111616134643555 1.104571342468262 0.2117204666137695 1.10345458984375 0.2122306823730469 1.102437973022461 C 0.2127761840820312 1.101345062255859 0.2132711410522461 1.100368499755859 0.2138214111328125 1.099281311035156 C 0.2144365310668945 1.098062515258789 0.2149934768676758 1.096962928771973 0.2156105041503906 1.095748901367188 C 0.2162666320800781 1.094457626342773 0.2169246673583984 1.09316349029541 0.2175846099853516 1.091872215270996 C 0.2181301116943359 1.090803146362305 0.2186603546142578 1.089764595031738 0.219207763671875 1.088699340820312 C 0.2197284698486328 1.087685585021973 0.2202425003051758 1.086685180664062 0.2207632064819336 1.085673332214355 C 0.2215147018432617 1.08421516418457 0.2222509384155273 1.082784652709961 0.2230072021484375 1.081328392028809 C 0.2235393524169922 1.080300331115723 0.2240924835205078 1.079237937927246 0.2246265411376953 1.078208923339844 C 0.2251615524291992 1.077181816101074 0.2256927490234375 1.076160430908203 0.2262306213378906 1.075132369995117 C 0.2267951965332031 1.074049949645996 0.2273378372192383 1.073015213012695 0.2279062271118164 1.071932792663574 C 0.2286491394042969 1.070517539978027 0.2294082641601562 1.069070816040039 0.2301549911499023 1.067659378051758 C 0.2307062149047852 1.066615104675293 0.2312097549438477 1.065664291381836 0.2317628860473633 1.064620971679688 C 0.2323055267333984 1.063597679138184 0.2328414916992188 1.062592506408691 0.2333841323852539 1.061567306518555 C 0.2339468002319336 1.060510635375977 0.2345142364501953 1.059447288513184 0.2350788116455078 1.058391571044922 C 0.2356166839599609 1.057384490966797 0.2361364364624023 1.056416511535645 0.2366752624511719 1.055410385131836 C 0.2371940612792969 1.054442405700684 0.2377538681030273 1.053401947021484 0.238276481628418 1.052434921264648 C 0.2388458251953125 1.051375389099121 0.2393598556518555 1.050422668457031 0.2399320602416992 1.049367904663086 C 0.2407312393188477 1.047891616821289 0.2415313720703125 1.046417236328125 0.2423362731933594 1.044940948486328 C 0.2428808212280273 1.043938636779785 0.2434625625610352 1.042874336242676 0.2440090179443359 1.041873931884766 C 0.2445459365844727 1.040889739990234 0.2451200485229492 1.039841651916504 0.2456598281860352 1.038861274719238 C 0.2458162307739258 1.038576126098633 0.2459707260131836 1.038295745849609 0.2461271286010742 1.038010597229004 C 0.2469158172607422 1.036576271057129 0.2476358413696289 1.035269737243652 0.2484283447265625 1.033836364746094 C 0.2489004135131836 1.032981872558594 0.2493734359741211 1.032127380371094 0.2498493194580078 1.031270027160645 C 0.2503910064697266 1.030284881591797 0.2509441375732422 1.029295921325684 0.2514915466308594 1.028314590454102 C 0.2516107559204102 1.028100967407227 0.251734733581543 1.02787971496582 0.2518529891967773 1.027666091918945 C 0.2531404495239258 1.025357246398926 0.2544698715209961 1.022982597351074 0.2557668685913086 1.020679473876953 C 0.2563152313232422 1.019698143005371 0.2568216323852539 1.018804550170898 0.2573747634887695 1.017826080322266 C 0.2574748992919922 1.017648696899414 0.2575740814208984 1.017473220825195 0.2576742172241211 1.017295837402344 C 0.2595634460449219 1.013954162597656 0.2614622116088867 1.010617256164551 0.2633695602416992 1.00728702545166 C 0.2639122009277344 1.006352424621582 0.2644147872924805 1.005465507507324 0.2649555206298828 1.004523277282715 C 0.2649860382080078 1.004470825195312 0.2650070190429688 1.004433631896973 0.2650375366210938 1.00438117980957 C 0.2665109634399414 1.001818656921387 0.2680187225341797 0.999211311340332 0.2695035934448242 0.9966554641723633 C 0.2695035934448242 0.9966554641723633 0.2695131301879883 0.9966392517089844 0.2695131301879883 0.9966392517089844 C 0.2700490951538086 0.9957170486450195 0.2705297470092773 0.9948654174804688 0.271087646484375 0.9939346313476562 C 0.2730827331542969 0.9905128479003906 0.2751007080078125 0.9870758056640625 0.2771158218383789 0.9836673736572266 C 0.2771263122558594 0.9836492538452148 0.2771539688110352 0.9836025238037109 0.2771644592285156 0.9835853576660156 C 0.3634481430053711 0.8376398086547852 0.4677467346191406 0.7036275863647461 0.5870018005371094 0.5845718383789062 Z M 2 0 L 2 0.5 C 1.856389999389648 0.5 1.714559555053711 0.5201597213745117 1.578459739685059 0.5599098205566406 L 1.43828010559082 0.07995986938476562 C 1.439192771911621 0.07969284057617188 1.440098762512207 0.07942867279052734 1.441010475158691 0.07916450500488281 C 1.442033767700195 0.07886886596679688 1.442971229553223 0.07859897613525391 1.443991661071777 0.07830142974853516 C 1.444891929626465 0.07804107666015625 1.445690155029297 0.07781600952148438 1.446592330932617 0.07755184173583984 C 1.44770622253418 0.07723140716552734 1.448843002319336 0.07690811157226562 1.449958801269531 0.07658767700195312 C 1.45089054107666 0.076324462890625 1.451777458190918 0.07607269287109375 1.452706336975098 0.0758056640625 C 1.453766822814941 0.07550525665283203 1.45479679107666 0.07521247863769531 1.455856323242188 0.07491493225097656 C 1.456850051879883 0.07463359832763672 1.457734107971191 0.07438850402832031 1.458724021911621 0.07410812377929688 C 1.459623336791992 0.07385635375976562 1.460594177246094 0.07360267639160156 1.46148681640625 0.07333469390869141 C 1.462532997131348 0.0730438232421875 1.463703155517578 0.07271766662597656 1.46474552154541 0.07242965698242188 C 1.465610504150391 0.07219123840332031 1.466558456420898 0.071929931640625 1.46741771697998 0.07169055938720703 C 1.468523025512695 0.07138729095458984 1.469520568847656 0.07111167907714844 1.47062873840332 0.07080936431884766 C 1.471549034118652 0.07055759429931641 1.472562789916992 0.07028388977050781 1.473482131958008 0.07003021240234375 C 1.474503517150879 0.06975173950195312 1.47557544708252 0.06945514678955078 1.476600646972656 0.06918430328369141 C 1.477542877197266 0.06892871856689453 1.478583335876465 0.06864738464355469 1.479525566101074 0.06839561462402344 C 1.480428695678711 0.06815338134765625 1.481344223022461 0.06790447235107422 1.482245445251465 0.06766605377197266 C 1.483353614807129 0.06737041473388672 1.484426498413086 0.06708526611328125 1.485535621643066 0.06678962707519531 C 1.486435890197754 0.06655120849609375 1.487435340881348 0.06628894805908203 1.488335609436035 0.06604862213134766 C 1.489371299743652 0.06577491760253906 1.490501403808594 0.06547355651855469 1.491540908813477 0.06520652770996094 C 1.492520332336426 0.06494998931884766 1.493484497070312 0.06470012664794922 1.494462013244629 0.06444263458251953 C 1.496438980102539 0.06392765045166016 1.498569488525391 0.06337451934814453 1.500548362731934 0.06286811828613281 C 1.501415252685547 0.06264495849609375 1.502355575561523 0.06242084503173828 1.503202438354492 0.06218719482421875 C 1.504245758056641 0.06192111968994141 1.505221366882324 0.06168937683105469 1.506254196166992 0.06140995025634766 C 1.507308959960938 0.06114292144775391 1.508159637451172 0.06091880798339844 1.509213447570801 0.06066131591796875 C 1.511269569396973 0.06014251708984375 1.513189315795898 0.05966663360595703 1.515254020690918 0.05914688110351562 C 1.517256736755371 0.05864810943603516 1.519172668457031 0.05817508697509766 1.521178245544434 0.05768203735351562 C 1.521178245544434 0.05768203735351562 1.521186828613281 0.05768013000488281 1.521186828613281 0.05768013000488281 C 1.522189140319824 0.05743408203125 1.523185729980469 0.05718994140625 1.524188995361328 0.05694484710693359 C 1.524188995361328 0.05694484710693359 1.524190902709961 0.05694389343261719 1.524190902709961 0.05694389343261719 C 1.52620792388916 0.05645179748535156 1.528261184692383 0.05608081817626953 1.53023624420166 0.05547904968261719 C 1.532278060913086 0.05498695373535156 1.534244537353516 0.05449771881103516 1.536297798156738 0.05403041839599609 C 1.642895698547363 0.02872085571289062 1.752724647521973 0.01195716857910156 1.865169525146484 0.004472732543945312 C 1.867198944091797 0.004410743713378906 1.869392395019531 0.004195213317871094 1.871527671813965 0.004059791564941406 C 1.874518394470215 0.003924369812011719 1.877900123596191 0.003664016723632812 1.881113052368164 0.003475189208984375 C 1.881113052368164 0.003475189208984375 1.881121635437012 0.003475189208984375 1.881121635437012 0.003475189208984375 C 1.883305549621582 0.003347396850585938 1.885372161865234 0.003252029418945312 1.887598991394043 0.00310516357421875 C 1.889705657958984 0.002988815307617188 1.891870498657227 0.0028839111328125 1.893982887268066 0.0027618408203125 C 1.895068168640137 0.002706527709960938 1.896178245544434 0.002649307250976562 1.897263526916504 0.002593040466308594 C 1.899391174316406 0.002485275268554688 1.90155029296875 0.002385139465332031 1.903668403625488 0.002279281616210938 C 1.905774116516113 0.002179145812988281 1.907950401306152 0.002072334289550781 1.910061836242676 0.001986503601074219 C 1.911097526550293 0.001939773559570312 1.912068367004395 0.001913070678710938 1.913115501403809 0.001852989196777344 C 1.914207458496094 0.001807212829589844 1.915234565734863 0.00177001953125 1.916333198547363 0.001718521118164062 C 1.917465209960938 0.001672744750976562 1.918525695800781 0.001626968383789062 1.91965389251709 0.001585006713867188 C 1.921797752380371 0.001500129699707031 1.923951148986816 0.001425743103027344 1.926104545593262 0.001339912414550781 C 1.927099227905273 0.00130462646484375 1.928156852722168 0.001268386840820312 1.92915153503418 0.001231193542480469 C 1.93026065826416 0.001194000244140625 1.931423187255859 0.001156806945800781 1.93253231048584 0.001116752624511719 C 1.933622360229492 0.001081466674804688 1.934604644775391 0.001047134399414062 1.935697555541992 0.00101470947265625 C 1.937870979309082 0.0009450912475585938 1.940018653869629 0.000865936279296875 1.942191123962402 0.000820159912109375 C 1.944423675537109 0.0007562637329101562 1.946571350097656 0.0007009506225585938 1.948797225952148 0.0006427764892578125 C 1.949802398681641 0.0006170272827148438 1.950772285461426 0.0005922317504882812 1.951779365539551 0.0005702972412109375 C 1.952861785888672 0.000545501708984375 1.954048156738281 0.0005168914794921875 1.955129623413086 0.0004940032958984375 C 1.956170082092285 0.0004711151123046875 1.957298278808594 0.0004453659057617188 1.958339691162109 0.0004253387451171875 C 1.959291458129883 0.0004062652587890625 1.960384368896484 0.0003728866577148438 1.961265563964844 0.0003681182861328125 C 1.962486267089844 0.0003442764282226562 1.963624954223633 0.0003223419189453125 1.964844703674316 0.0003032684326171875 C 1.965814590454102 0.000286102294921875 1.96685791015625 0.000270843505859375 1.967830657958984 0.0002536773681640625 C 1.968995094299316 0.0002355575561523438 1.970205307006836 0.000217437744140625 1.971373558044434 0.0002012252807617188 C 1.972453117370605 0.000186920166015625 1.973376274108887 0.0001735687255859375 1.974459648132324 0.00016021728515625 C 1.975506782531738 0.0001468658447265625 1.976601600646973 0.0001344680786132812 1.977646827697754 0.0001230239868164062 C 1.978733062744141 0.0001115798950195312 1.979839324951172 9.632110595703125e-05 1.980926513671875 8.96453857421875e-05 C 1.981860160827637 8.106231689453125e-05 1.982918739318848 7.152557373046875e-05 1.983868598937988 6.389617919921875e-05 C 1.98508358001709 5.435943603515625e-05 1.986352920532227 4.482269287109375e-05 1.987565040588379 3.814697265625e-05 C 1.988598823547363 3.24249267578125e-05 1.989480972290039 2.574920654296875e-05 1.990512847900391 2.193450927734375e-05 C 1.991680145263672 1.621246337890625e-05 1.992856025695801 8.58306884765625e-06 1.994029998779297 9.5367431640625e-06 C 1.995112419128418 5.7220458984375e-06 1.996041297912598 6.67572021484375e-06 1.997121810913086 1.9073486328125e-06 C 1.998064994812012 9.5367431640625e-07 1.999055862426758 0 2 0 Z" stroke="none" fill="#fff"/>
        </g>
      </g>
      <g transform="matrix(1, 0, 0, 1, 18, 791)" filter="url(#AP)">
        <text id="AP-2" data-name="AP" transform="translate(4 9)" fill="#fff" font-size="6" font-family="Arial-BoldMT, Arial" font-weight="700"><tspan x="0" y="0">AP</tspan></text>
      </g>
    </g>
  </g>
</svg>
