<svg xmlns="http://www.w3.org/2000/svg" xmlns:xlink="http://www.w3.org/1999/xlink" width="15" height="15" viewBox="0 0 15 15">
  <defs>
    <filter id="ClearCacheIcon" x="-9" y="-6" width="32" height="33" filterUnits="userSpaceOnUse">
      <feOffset dy="3" input="SourceAlpha"/>
      <feGaussianBlur stdDeviation="3" result="blur"/>
      <feFlood/>
      <feComposite operator="in" in2="blur"/>
      <feComposite in="SourceGraphic"/>
    </filter>
    <clipPath id="clip-ClearCacheIcon-2">
      <rect width="15" height="15"/>
    </clipPath>
  </defs>
  <g id="ClearCacheIcon-2" data-name="ClearCacheIcon" clip-path="url(#clip-ClearCacheIcon-2)">
    <g transform="matrix(1, 0, 0, 1, 0, 0)" filter="url(#ClearCacheIcon)">
      <path id="ClearCacheIcon-3" data-name="ClearCacheIcon" d="M-3548-2188a1,1,0,0,1-1-1v-9h-1a1,1,0,0,1-1-1,1,1,0,0,1,1-1h12a1,1,0,0,1,1,1,1,1,0,0,1-1,1h-1v9a1,1,0,0,1-1,1Zm2-13a1,1,0,0,1-1-1,1,1,0,0,1,1-1h4a1,1,0,0,1,1,1,1,1,0,0,1-1,1Z" transform="translate(3551 2203)" fill="#fff"/>
    </g>
  </g>
</svg>
