<svg xmlns="http://www.w3.org/2000/svg" xmlns:xlink="http://www.w3.org/1999/xlink" width="15" height="15" viewBox="0 0 15 15">
  <defs>
    <filter id="Ellipse_296" x="-4" y="-4" width="24" height="25" filterUnits="userSpaceOnUse">
      <feOffset dy="3" input="SourceAlpha"/>
      <feGaussianBlur stdDeviation="3" result="blur"/>
      <feFlood flood-opacity="0.537"/>
      <feComposite operator="in" in2="blur"/>
      <feComposite in="SourceGraphic"/>
    </filter>
    <filter id="Rectangle_2357" x="-5" y="-1" width="26" height="25" filterUnits="userSpaceOnUse">
      <feOffset dy="3" input="SourceAlpha"/>
      <feGaussianBlur stdDeviation="3" result="blur-2"/>
      <feFlood flood-opacity="0.537"/>
      <feComposite operator="in" in2="blur-2"/>
      <feComposite in="SourceGraphic"/>
    </filter>
    <clipPath id="clip-PrivacyIcon">
      <rect width="15" height="15"/>
    </clipPath>
  </defs>
  <g id="PrivacyIcon" clip-path="url(#clip-PrivacyIcon)">
    <g id="PrivacyPolicyIcon" transform="translate(-19 -659)">
      <path id="Path_645" data-name="Path 645" d="M2,0H12a2.193,2.193,0,0,1,1.412.583A1.825,1.825,0,0,1,14,2V13a2,2,0,0,1-2,2H2a2,2,0,0,1-2-2V2A2,2,0,0,1,2,0Z" transform="translate(20 659)" fill="#fff"/>
      <path id="Path_644" data-name="Path 644" d="M9,0" transform="translate(22.5 664.5)" fill="none" stroke="#000" stroke-width="1"/>
      <g id="Group_1971" data-name="Group 1971" transform="translate(-9559 4720)">
        <g transform="matrix(1, 0, 0, 1, 9578, -4061)" filter="url(#Ellipse_296)">
          <g id="Ellipse_296-2" data-name="Ellipse 296" transform="translate(5 2)" fill="none" stroke="#000" stroke-width="1.5">
            <ellipse cx="3" cy="3.5" rx="3" ry="3.5" stroke="none"/>
            <ellipse cx="3" cy="3.5" rx="2.25" ry="2.75" fill="none"/>
          </g>
        </g>
        <g transform="matrix(1, 0, 0, 1, 9578, -4061)" filter="url(#Rectangle_2357)">
          <rect id="Rectangle_2357-2" data-name="Rectangle 2357" width="8" height="7" rx="2" transform="translate(4 5)"/>
        </g>
      </g>
    </g>
  </g>
</svg>
