<svg xmlns="http://www.w3.org/2000/svg" xmlns:xlink="http://www.w3.org/1999/xlink" width="15" height="15" viewBox="0 0 15 15">
  <defs>
    <clipPath id="clip-SoundbarBetaIcon">
      <rect width="15" height="15"/>
    </clipPath>
  </defs>
  <g id="SoundbarBetaIcon" clip-path="url(#clip-SoundbarBetaIcon)">
    <g id="SoundBarBetaIcon-2" data-name="SoundBarBetaIcon" transform="translate(-22.505 -745.439)">
      <line id="Line_103" data-name="Line 103" y2="14.878" transform="translate(27.747 745.562)" fill="none" stroke="#fff" stroke-width="2.3"/>
      <path id="Subtraction_1" data-name="Subtraction 1" d="M4.258,11.587a3.962,3.962,0,0,1-2.8-1A5.3,5.3,0,0,1,0,7.695H2.033a4.1,4.1,0,0,0,.361,1.137,2.6,2.6,0,0,0,.543.735,1.892,1.892,0,0,0,.648.394,2.081,2.081,0,0,0,.672.116,1.8,1.8,0,0,0,.186-.01l-.037.036,1.325,1.273A5.1,5.1,0,0,1,4.258,11.587Zm3.165-1.295h0L6.04,8.965a1.72,1.72,0,0,0,.16-.747,1.977,1.977,0,0,0-.145-.751,1.834,1.834,0,0,0-.411-.614A1.94,1.94,0,0,0,5,6.437a2.3,2.3,0,0,0-.855-.153H3.063v-1.6H4.142a1.891,1.891,0,0,0,.73-.125,1.325,1.325,0,0,0,.486-.332,1.273,1.273,0,0,0,.27-.469A1.775,1.775,0,0,0,5.71,3.22a1.624,1.624,0,0,0-.419-1.178A1.532,1.532,0,0,0,4.142,1.61a1.4,1.4,0,0,0-.718.187,1.924,1.924,0,0,0-.552.485,2.457,2.457,0,0,0-.37.681,3.671,3.671,0,0,0-.186.771H.323A6.449,6.449,0,0,1,.73,2.349a4.2,4.2,0,0,1,.755-1.2A3.575,3.575,0,0,1,2.639.315,3.83,3.83,0,0,1,4.25,0a4.151,4.151,0,0,1,1.49.245A3,3,0,0,1,6.8.912a2.7,2.7,0,0,1,.631.993,3.555,3.555,0,0,1,.208,1.224A2.709,2.709,0,0,1,6.383,5.445a3.446,3.446,0,0,1,1.3,1.125,2.929,2.929,0,0,1,.448,1.648A3.256,3.256,0,0,1,7.823,9.67a3.183,3.183,0,0,1-.4.621Z" transform="matrix(0.998, -0.07, 0.07, 0.998, 26.044, 746.007)" fill="#fff"/>
    </g>
  </g>
</svg>
